<svg xmlns="http://www.w3.org/2000/svg" viewBox="0 0 640 340" role="img" aria-label="Toyota Camry">
  <rect width="640" height="340" fill="#e2ecea"/>
  <rect x="0" y="238" width="640" height="102" fill="#9ab8b2"/>
  <path d="M80 217h454c32 0 57 23 62 51H58c5-30 29-51 22-51z" fill="#163d4f"/>
  <path d="M174 140h252c50 0 93 37 111 80H118c18-42 45-80 56-80z" fill="#1f5a75"/>
  <path d="M198 158h99v56H150c19-35 36-56 48-56zM322 158h98c36 0 66 25 87 56H322z" fill="#f3fbfd"/>
  <circle cx="170" cy="268" r="44" fill="#172127"/>
  <circle cx="170" cy="268" r="19" fill="#c2d2d7"/>
  <circle cx="487" cy="268" r="44" fill="#172127"/>
  <circle cx="487" cy="268" r="19" fill="#c2d2d7"/>
  <rect x="88" y="232" width="62" height="14" rx="7" fill="#ffd166"/>
  <rect x="538" y="230" width="36" height="16" rx="7" fill="#ef5b5b"/>
</svg>
