<svg xmlns="http://www.w3.org/2000/svg" viewBox="0 0 640 340" role="img" aria-label="Honda Civic">
  <rect width="640" height="340" fill="#dfe8e4"/>
  <rect x="0" y="240" width="640" height="100" fill="#a8b9b0"/>
  <path d="M118 214h390c26 0 50 20 55 46H75c4-27 36-46 43-46z" fill="#2f6f68"/>
  <path d="M190 150h218c33 0 69 29 86 66H130c18-45 39-66 60-66z" fill="#359188"/>
  <path d="M207 165h83v48H151c15-31 30-48 56-48zM310 165h89c24 0 50 18 70 48H310z" fill="#edf7f4"/>
  <circle cx="173" cy="263" r="43" fill="#1f2a25"/>
  <circle cx="173" cy="263" r="20" fill="#c8d1cc"/>
  <circle cx="458" cy="263" r="43" fill="#1f2a25"/>
  <circle cx="458" cy="263" r="20" fill="#c8d1cc"/>
  <rect x="84" y="225" width="64" height="15" rx="7" fill="#f7d06b"/>
  <rect x="501" y="225" width="38" height="15" rx="7" fill="#e95b5b"/>
</svg>
