<svg xmlns="http://www.w3.org/2000/svg" viewBox="0 0 640 340" role="img" aria-label="Renault Logan">
  <rect width="640" height="340" fill="#e9e5cf"/>
  <rect x="0" y="239" width="640" height="101" fill="#bdb57d"/>
  <path d="M88 224h402c36 0 61 20 68 47H69c5-30 28-47 19-47z" fill="#bd8a21"/>
  <path d="M176 153h217c40 0 76 32 94 70H125c18-37 38-70 51-70z" fill="#d9a12b"/>
  <path d="M198 168h83v50H153c16-30 32-50 45-50zM305 168h86c30 0 56 22 75 50H305z" fill="#fff9e8"/>
  <circle cx="164" cy="270" r="42" fill="#29261f"/>
  <circle cx="164" cy="270" r="18" fill="#d9d1ac"/>
  <circle cx="457" cy="270" r="42" fill="#29261f"/>
  <circle cx="457" cy="270" r="18" fill="#d9d1ac"/>
  <path d="M232 226l34 18M386 225l32 19" stroke="#9a6b19" stroke-width="10" stroke-linecap="round"/>
  <rect x="88" y="236" width="54" height="13" rx="7" fill="#ffe082"/>
  <rect x="503" y="235" width="36" height="14" rx="7" fill="#d85445"/>
</svg>
