<svg xmlns="http://www.w3.org/2000/svg" viewBox="0 0 640 340" role="img" aria-label="Skoda Octavia">
  <rect width="640" height="340" fill="#dfe5ee"/>
  <rect x="0" y="238" width="640" height="102" fill="#96a3b5"/>
  <path d="M82 219h442c31 0 55 22 61 49H61c4-29 28-49 21-49z" fill="#545f6a"/>
  <path d="M174 144h246c50 0 90 35 106 77H121c19-42 44-77 53-77z" fill="#6d7783"/>
  <path d="M198 160h96v56H151c19-34 35-56 47-56zM318 160h96c35 0 62 24 82 56H318z" fill="#f8fbff"/>
  <circle cx="167" cy="268" r="43" fill="#1f2428"/>
  <circle cx="167" cy="268" r="20" fill="#ccd2d9"/>
  <circle cx="477" cy="268" r="43" fill="#1f2428"/>
  <circle cx="477" cy="268" r="20" fill="#ccd2d9"/>
  <rect x="89" y="232" width="60" height="14" rx="7" fill="#ffd166"/>
  <rect x="530" y="230" width="34" height="16" rx="7" fill="#e75b5b"/>
</svg>
